<svg width="40" height="40" viewBox="0 0 40 40" fill="none" xmlns="http://www.w3.org/2000/svg">
<path d="M35.7756 34.2813C34.19 34.6954 32.5519 34.9062 30.9118 34.9062C23.7391 34.9062 17.1906 30.9771 13.82 24.6567C9.58844 16.7155 11.3349 7.01385 18.0701 1.06177L19.2723 0L17.7199 0.405503C16.1882 0.804381 14.709 1.38082 13.3248 2.11871C3.53535 7.33822 -0.184922 19.5483 5.03451 29.3396C8.53878 35.9147 15.3491 40 22.8044 40C26.0786 40 29.3455 39.1802 32.2528 37.6306C33.6369 36.8926 34.9386 35.9885 36.126 34.9395L37.3279 33.8757L35.7756 34.2813Z" fill="#121212"/>
<path d="M23.4838 22.9062L27.1137 20.9976L30.7416 22.9062L30.0489 18.8655L32.9848 16.0035L28.9274 15.4131L27.1137 11.7386L25.2994 15.4138L21.2414 16.0041L24.1772 18.8662L23.4838 22.9062Z" fill="#121212"/>
</svg>
