<svg width="40" height="40" viewBox="0 0 40 40" fill="none" xmlns="http://www.w3.org/2000/svg">
<path d="M20 28.8366C24.8803 28.8366 28.8366 24.8803 28.8366 20C28.8366 15.1197 24.8803 11.1634 20 11.1634C15.1197 11.1634 11.1634 15.1197 11.1634 20C11.1634 24.8803 15.1197 28.8366 20 28.8366Z" fill="#D5D5D5"/>
<path d="M20 30.2817C14.3308 30.2817 9.71854 25.6694 9.71854 20.0002C9.71854 14.331 14.3308 9.71873 20 9.71873C25.6692 9.71873 30.2815 14.331 30.2815 20.0002C30.2815 25.6694 25.6692 30.2817 20 30.2817ZM20 12.6083C15.9243 12.6083 12.6083 15.9242 12.6083 20C12.6083 24.0758 15.9243 27.3917 20 27.3917C24.0758 27.3917 27.3917 24.0758 27.3917 20C27.3917 15.9242 24.0758 12.6083 20 12.6083Z" fill="#D5D5D5"/>
<path d="M20 7.58761C19.202 7.58761 18.5551 6.94068 18.5551 6.14272V1.44489C18.5551 0.646926 19.202 0 20 0C20.798 0 21.4449 0.646926 21.4449 1.44489V6.14272C21.4449 6.94068 20.798 7.58761 20 7.58761Z" fill="#D5D5D5"/>
<path d="M20 40C19.202 40 18.5551 39.3531 18.5551 38.5551V33.8573C18.5551 33.0593 19.202 32.4124 20 32.4124C20.798 32.4124 21.4449 33.0593 21.4449 33.8573V38.5551C21.4449 39.3533 20.798 40 20 40Z" fill="#D5D5D5"/>
<path d="M38.5551 21.4449H33.8573C33.0593 21.4449 32.4124 20.798 32.4124 20C32.4124 19.202 33.0593 18.5551 33.8573 18.5551H38.5551C39.3531 18.5551 40 19.202 40 20C40 20.798 39.3533 21.4449 38.5551 21.4449Z" fill="#D5D5D5"/>
<path d="M6.14272 21.4449H1.44489C0.646926 21.4449 0 20.798 0 20C0 19.202 0.646926 18.5551 1.44489 18.5551H6.14272C6.94068 18.5551 7.58761 19.202 7.58761 20C7.58761 20.798 6.94068 21.4449 6.14272 21.4449Z" fill="#D5D5D5"/>
<path d="M29.7987 11.6462C29.429 11.6462 29.0591 11.5052 28.777 11.223C28.2128 10.6587 28.2128 9.74377 28.777 9.17968L32.0989 5.85797C32.6632 5.2937 33.5781 5.2935 34.1422 5.85797C34.7065 6.42225 34.7065 7.33716 34.1422 7.90124L30.8203 11.223C30.5383 11.5052 30.1684 11.6462 29.7987 11.6462Z" fill="#D5D5D5"/>
<path d="M6.87942 34.5655C6.50972 34.5655 6.13983 34.4245 5.85778 34.1422C5.2935 33.5779 5.2935 32.663 5.85778 32.0989L9.17969 28.777C9.74397 28.2128 10.6589 28.2128 11.223 28.777C11.7872 29.3413 11.7872 30.2562 11.223 30.8203L7.90105 34.1422C7.61901 34.4245 7.24931 34.5655 6.87942 34.5655Z" fill="#D5D5D5"/>
<path d="M33.1204 34.5655C32.7507 34.5655 32.3808 34.4245 32.0988 34.1422L28.7768 30.8203C28.2126 30.256 28.2126 29.3411 28.7768 28.777C29.3411 28.2128 30.256 28.2128 30.8201 28.777L34.142 32.0989C34.7063 32.6632 34.7063 33.5781 34.142 34.1422C33.86 34.4245 33.4903 34.5655 33.1204 34.5655Z" fill="#D5D5D5"/>
<path d="M10.2013 11.6462C9.83162 11.6462 9.46173 11.5052 9.17969 11.223L5.85778 7.90124C5.2935 7.33696 5.2935 6.42225 5.85778 5.85797C6.42206 5.2937 7.33697 5.2935 7.90105 5.85797L11.223 9.17968C11.7872 9.74396 11.7872 10.6587 11.223 11.223C10.9409 11.5052 10.5712 11.6462 10.2013 11.6462Z" fill="#D5D5D5"/>
</svg>
